<svg width="36" height="36" xmlns="http://www.w3.org/2000/svg" fill="none">
 <g>
  <title>Layer 1</title>
  <path fill-rule="evenodd" clip-rule="evenodd" d="m18,36c-14.51732,0 -18,-3.4827 -18,-18c0,-14.51731 3.48268,-18 18,-18c14.5173,0 18,3.48269 18,18c0,14.5173 -3.4827,18 -18,18zm-5.0957,-27.09166l-5.64565,12.83096c-0.25662,0.6233 -0.47658,1.4297 -0.47658,2.1263c0,3.1894 2.23626,5.4257 5.42563,5.4257c1.0452,0 1.9131,-0.2746 2.7956,-0.5538l0.0007,-0.0003c0.9125,-0.2888 1.8406,-0.5824 2.996,-0.5824c1.1689,0 2.0748,0.291 2.9697,0.5786l0.0003,0.0001c0.8732,0.2806 1.736,0.5578 2.8222,0.5578c3.1894,0 5.4257,-2.2363 5.4257,-5.4257c0,-0.6966 -0.22,-1.503 -0.4765,-2.1263l-5.6456,-12.83096c-0.9533,-2.16293 -2.7862,-3.33604 -5.0958,-3.33604c-2.3096,0 -4.1426,1.17311 -5.0957,3.33604zm-0.4766,14.84736l5.5723,-12.611l5.499,12.611c-1.5764,-0.7699 -3.556,-1.1365 -5.499,-1.1365c-2.0163,0 -3.9226,0.3666 -5.5723,1.1365zm53.38,1.8142c0.2232,-0.1674 0.4092,-0.3348 0.558,-0.5022l0,1.0323l3.4596,0l0,-18.13503l-3.4596,0l0,6.72393c-0.1488,-0.1674 -0.3348,-0.3348 -0.558,-0.5022c-0.2046,-0.1674 -0.4464,-0.3069 -0.7254,-0.4185c-0.2604,-0.1302 -0.558,-0.2325 -0.8928,-0.3069c-0.3162,-0.0744 -0.6324,-0.1116 -0.9486,-0.1116c-0.9114,0 -1.7205,0.1767 -2.4273,0.5301c-0.7068,0.3348 -1.302,0.7998 -1.7856,1.395c-0.4836,0.5952 -0.8556,1.2834 -1.116,2.0646c-0.2418,0.7812 -0.3627,1.6275 -0.3627,2.5389c0,0.8928 0.1209,1.7391 0.3627,2.5389c0.2604,0.7812 0.6324,1.4694 1.116,2.0646c0.4836,0.5952 1.0788,1.0602 1.7856,1.395c0.7068,0.3348 1.5159,0.5022 2.4273,0.5022c0.3162,0 0.6324,-0.0372 0.9486,-0.1116c0.3348,-0.0744 0.6324,-0.1674 0.8928,-0.279c0.279,-0.1302 0.5208,-0.2697 0.7254,-0.4185zm-0.3906,-8.7885c0.4278,0.2604 0.744,0.6045 0.9486,1.0323l0,4.1013c-0.2046,0.4278 -0.5208,0.7812 -0.9486,1.0602c-0.4278,0.2604 -0.9021,0.3906 -1.4229,0.3906c-0.465,0 -0.8835,-0.0837 -1.2555,-0.2511c-0.372,-0.186 -0.6882,-0.4278 -0.9486,-0.7254c-0.2418,-0.3162 -0.4371,-0.6882 -0.5859,-1.116c-0.1302,-0.4278 -0.1953,-0.8928 -0.1953,-1.395s0.0651,-0.9672 0.1953,-1.395c0.1488,-0.4278 0.3441,-0.7905 0.5859,-1.0881c0.2604,-0.3162 0.5766,-0.5673 0.9486,-0.7533c0.372,-0.186 0.7905,-0.279 1.2555,-0.279c0.5208,0 0.9951,0.1395 1.4229,0.4185zm-12.7725,8.649l0,0.6696l3.3201,0l0,-7.9515c0,-1.5066 -0.4557,-2.6784 -1.3671,-3.5154c-0.9114,-0.8556 -2.2041,-1.2834 -3.8781,-1.2834c-0.7068,0 -1.3578,0.1023 -1.953,0.3069c-0.5952,0.2046 -1.1253,0.4929 -1.5903,0.8649c-0.4464,0.3534 -0.8184,0.7719 -1.116,1.2555c-0.279,0.4836 -0.465,1.0044 -0.558,1.5624l3.2922,0c0.1302,-0.372 0.3441,-0.6603 0.6417,-0.8649c0.2976,-0.2046 0.6975,-0.3069 1.1997,-0.3069c0.6882,0 1.1904,0.186 1.5066,0.558c0.3348,0.372 0.5022,0.8277 0.5022,1.3671l0,0.9207c-0.2604,-0.186 -0.6603,-0.3534 -1.1997,-0.5022s-1.0788,-0.2232 -1.6182,-0.2232c-0.6882,0 -1.3299,0.1023 -1.9251,0.3069c-0.5766,0.186 -1.0881,0.4557 -1.5345,0.8091c-0.4278,0.3348 -0.7626,0.7533 -1.0044,1.2555c-0.2418,0.4836 -0.3627,1.023 -0.3627,1.6182c0,0.651 0.1209,1.2276 0.3627,1.7298c0.2418,0.5022 0.5673,0.93 0.9765,1.2834c0.4278,0.3348 0.9207,0.5952 1.4787,0.7812c0.558,0.1674 1.1532,0.2511 1.7856,0.2511c0.6882,0 1.3113,-0.093 1.8693,-0.279c0.5766,-0.2046 0.9672,-0.4092 1.1718,-0.6138zm-0.3069,-4.0734c0.1488,0.1302 0.2511,0.279 0.3069,0.4464l0,0.9207c-0.0558,0.1674 -0.1581,0.3162 -0.3069,0.4464c-0.1488,0.1302 -0.3255,0.2418 -0.5301,0.3348s-0.4278,0.1674 -0.6696,0.2232c-0.2418,0.0372 -0.4836,0.0558 -0.7254,0.0558c-0.279,0 -0.5487,-0.0279 -0.8091,-0.0837c-0.2604,-0.0558 -0.5022,-0.1488 -0.7254,-0.279c-0.2046,-0.1302 -0.372,-0.2883 -0.5022,-0.4743c-0.1116,-0.186 -0.1674,-0.4185 -0.1674,-0.6975c0,-0.2604 0.0558,-0.4836 0.1674,-0.6696c0.1302,-0.2046 0.2976,-0.372 0.5022,-0.5022c0.2232,-0.1302 0.465,-0.2232 0.7254,-0.279c0.2604,-0.0558 0.5301,-0.0837 0.8091,-0.0837c0.2418,0 0.4836,0.0279 0.7254,0.0837c0.2418,0.0372 0.465,0.1116 0.6696,0.2232c0.2046,0.093 0.3813,0.2046 0.5301,0.3348zm31.4804,-1.4787c0,0.9486 -0.1488,1.8228 -0.4464,2.6226c-0.2976,0.7998 -0.7162,1.488 -1.2556,2.0646c-0.5207,0.5766 -1.1624,1.023 -1.925,1.3392c-0.744,0.3162 -1.5717,0.4743 -2.4831,0.4743c-0.9114,0 -1.7485,-0.1581 -2.511,-0.4743c-0.7441,-0.3162 -1.3857,-0.7626 -1.9251,-1.3392c-0.5208,-0.5766 -0.93,-1.2648 -1.2276,-2.0646c-0.2976,-0.7998 -0.4464,-1.674 -0.4464,-2.6226c0,-0.9672 0.1488,-1.8414 0.4464,-2.6226c0.2976,-0.7998 0.7068,-1.488 1.2276,-2.0646c0.5394,-0.5952 1.181,-1.0509 1.9251,-1.3671c0.7625,-0.3162 1.5996,-0.4743 2.511,-0.4743c0.9114,0 1.7391,0.1581 2.4831,0.4743c0.7626,0.3162 1.4043,0.7719 1.925,1.3671c0.5394,0.5766 0.958,1.2648 1.2556,2.0646c0.2976,0.7812 0.4464,1.6554 0.4464,2.6226zm-3.4317,0c0,-0.5208 -0.0558,-1.0044 -0.1674,-1.4508c-0.1116,-0.4464 -0.2883,-0.8277 -0.5301,-1.1439c-0.2232,-0.3162 -0.5022,-0.558 -0.837,-0.7254c-0.3348,-0.186 -0.7162,-0.279 -1.1439,-0.279c-0.4278,0 -0.8092,0.093 -1.1439,0.279c-0.3348,0.1674 -0.6232,0.4092 -0.8649,0.7254c-0.2232,0.3162 -0.3906,0.6975 -0.5022,1.1439c-0.1116,0.4464 -0.1675,0.93 -0.1675,1.4508s0.0559,1.0044 0.1675,1.4508c0.1116,0.4278 0.279,0.7998 0.5022,1.116c0.2417,0.3162 0.5301,0.5673 0.8649,0.7533c0.3347,0.186 0.7161,0.279 1.1439,0.279c0.4277,0 0.8091,-0.093 1.1439,-0.279c0.3348,-0.186 0.6138,-0.4371 0.837,-0.7533c0.2418,-0.3162 0.4185,-0.6882 0.5301,-1.116c0.1116,-0.4464 0.1674,-0.93 0.1674,-1.4508zm8.6834,-6.2496l-3.4596,0l0,12.4713l3.4596,0l0,-7.8957c0.0558,-0.279 0.1581,-0.5208 0.3069,-0.7254c0.1488,-0.2232 0.3255,-0.4092 0.5301,-0.558c0.2046,-0.1488 0.4278,-0.2604 0.6696,-0.3348c0.2418,-0.0744 0.4929,-0.1116 0.7533,-0.1116c0.6882,0 1.1997,0.2046 1.5345,0.6138s0.5022,0.9393 0.5022,1.5903l0,7.4214l3.4596,0l0,-8.1468c0,-1.3764 -0.3813,-2.4831 -1.1439,-3.3201c-0.7626,-0.8556 -1.8507,-1.2834 -3.2643,-1.2834c-0.7068,0 -1.3578,0.1395 -1.953,0.4185c-0.5952,0.279 -1.0602,0.6138 -1.395,1.0044l0,-1.1439zm10.1523,12.4713l0,-12.4713l3.4599,0l0,12.4713l-3.4599,0zm3.7949,-16.0704c0,0.5952 -0.205,1.0788 -0.614,1.4508c-0.409,0.3534 -0.893,0.5301 -1.451,0.5301c-0.539,0 -1.0138,-0.1767 -1.423,-0.5301c-0.4092,-0.372 -0.6138,-0.8556 -0.6138,-1.4508c0,-0.57663 0.2046,-1.04163 0.6138,-1.39503c0.4092,-0.372 0.884,-0.558 1.423,-0.558c0.558,0 1.042,0.186 1.451,0.558c0.409,0.3534 0.614,0.8184 0.614,1.39503zm5.62,13.392c-0.372,-0.2232 -0.623,-0.5673 -0.753,-1.0323l-3.432,0c0.093,0.6324 0.288,1.1997 0.586,1.7019c0.316,0.4836 0.716,0.9021 1.199,1.2555c0.484,0.3348 1.042,0.5859 1.674,0.7533c0.633,0.186 1.33,0.279 2.093,0.279c0.707,0 1.376,-0.093 2.009,-0.279c0.632,-0.186 1.172,-0.4464 1.618,-0.7812c0.465,-0.3534 0.828,-0.7812 1.088,-1.2834c0.26,-0.5022 0.391,-1.0695 0.391,-1.7019c0,-0.9486 -0.279,-1.7205 -0.837,-2.3157c-0.558,-0.5952 -1.386,-1.0323 -2.483,-1.3113l-2.567,-0.5859c-0.391,-0.093 -0.679,-0.2139 -0.865,-0.3627c-0.168,-0.1674 -0.251,-0.372 -0.251,-0.6138c0,-0.3906 0.167,-0.6789 0.502,-0.8649c0.353,-0.2046 0.735,-0.3069 1.144,-0.3069c0.576,0 1.014,0.1209 1.311,0.3627c0.316,0.2232 0.53,0.5115 0.642,0.8649l3.264,0c-0.186,-1.1904 -0.716,-2.1297 -1.59,-2.8179c-0.874,-0.6882 -2.093,-1.0323 -3.655,-1.0323c-0.707,0 -1.367,0.1023 -1.981,0.3069c-0.595,0.186 -1.116,0.4557 -1.562,0.8091c-0.447,0.3534 -0.8,0.7812 -1.061,1.2834c-0.241,0.4836 -0.362,1.0323 -0.362,1.6461c0,1.0602 0.297,1.86 0.893,2.3994c0.613,0.5208 1.395,0.8928 2.343,1.116l2.511,0.558c0.428,0.1116 0.735,0.2511 0.921,0.4185c0.204,0.1488 0.307,0.3627 0.307,0.6417c0,0.2046 -0.047,0.3906 -0.14,0.558c-0.074,0.1488 -0.186,0.2697 -0.335,0.3627c-0.148,0.093 -0.334,0.1674 -0.558,0.2232c-0.223,0.0558 -0.465,0.0837 -0.725,0.0837c-0.521,0 -0.967,-0.1116 -1.339,-0.3348z" fill="#2C2B2A" id="svg_1" stroke="null"/>
 </g>

</svg>